<?xml version="1.0" encoding="UTF-8" standalone="no"?>
<!-- Created with Inkscape (http://www.inkscape.org/) -->

<svg
   xmlns:dc="http://purl.org/dc/elements/1.1/"
   xmlns:cc="http://creativecommons.org/ns#"
   xmlns:rdf="http://www.w3.org/1999/02/22-rdf-syntax-ns#"
   xmlns:svg="http://www.w3.org/2000/svg"
   xmlns="http://www.w3.org/2000/svg"
   xmlns:sodipodi="http://sodipodi.sourceforge.net/DTD/sodipodi-0.dtd"
   xmlns:inkscape="http://www.inkscape.org/namespaces/inkscape"
   width="197.33333"
   height="197.33333"
   id="svg1897"
   sodipodi:version="0.32"
   inkscape:version="0.92.5 (2060ec1f9f, 2020-04-08)"
   version="1.0"
   sodipodi:docname="soloptxmr-logo.svg"
   inkscape:export-filename="/home/enjo/devel/github/SolOptXMR/data/soloptxmr-logo.png"
   inkscape:export-xdpi="155.15022"
   inkscape:export-ydpi="155.15022">
  <defs
     id="defs1899" />
  <sodipodi:namedview
     id="base"
     pagecolor="#ffffff"
     bordercolor="#666666"
     borderopacity="1.0"
     inkscape:pageopacity="0.0"
     inkscape:pageshadow="2"
     inkscape:zoom="2"
     inkscape:cx="-45.989642"
     inkscape:cy="68.348692"
     inkscape:document-units="px"
     inkscape:current-layer="g2129"
     width="185px"
     height="185px"
     inkscape:window-width="1920"
     inkscape:window-height="1084"
     inkscape:window-x="0"
     inkscape:window-y="25"
     showgrid="true"
     inkscape:window-maximized="1"
     showguides="false" />
  <metadata
     id="metadata1902">
    <rdf:RDF>
      <cc:Work
         rdf:about="">
        <dc:format>image/svg+xml</dc:format>
        <dc:type
           rdf:resource="http://purl.org/dc/dcmitype/StillImage" />
        <dc:title></dc:title>
      </cc:Work>
    </rdf:RDF>
  </metadata>
  <g
     inkscape:label="Calque 1"
     inkscape:groupmode="layer"
     id="layer1">
    <g
       style="display:inline;opacity:1"
       id="g2129"
       transform="matrix(0.754398,0,0,0.754398,-22.570176,-20.020139)">
      <path
         id="path2140"
         d="m 111.12468,36.807288 c -3.27329,12.801501 0.33474,23.339857 6.5908,33.269728 4.83769,7.678512 8.01623,15.861399 7.865,24.653225 -2.20059,1.240876 -4.29901,2.578439 -6.32463,4.017779 L 68.697046,65.16634 102.63965,115.16738 c -0.60981,0.84199 -1.20395,1.71717 -1.77605,2.58312 -9.6273,-4.33691 -18.664703,-5.19691 -27.276525,-3.53101 -12.174043,2.35494 -22.50971,-0.19472 -33.302404,-6.62718 6.737473,11.36659 16.789303,16.26444 28.234486,18.86225 8.867976,2.0128 16.883752,5.54478 23.000895,11.89277 -0.665588,2.39199 -1.215281,4.81135 -1.633274,7.26734 l -59.511224,12.06788 59.377058,11.35505 c 0.163198,1.02154 0.359856,2.04012 0.568446,3.05995 -9.876945,3.73692 -16.899209,9.50486 -21.811835,16.77394 -6.94316,10.27355 -16.005647,15.78169 -28.185657,18.86486 12.801496,3.2733 23.322197,-0.37735 33.252068,-6.63342 7.678529,-4.83766 15.861412,-8.01623 24.653217,-7.86501 1.24092,2.20059 2.578449,4.29903 4.017799,6.32464 l -33.564043,50.60145 50.026033,-34.0029 c 0.8355,0.60471 1.68143,1.22621 2.54046,1.79369 -4.33693,9.62731 -5.17922,18.70736 -3.51336,27.31917 2.35494,12.17408 -0.21234,22.46718 -6.6448,33.25981 11.3666,-6.73738 16.26448,-16.78923 18.86226,-28.23449 2.0128,-8.86801 5.54481,-16.88381 11.89276,-23.00094 2.39682,0.66748 4.80625,1.21443 7.2673,1.63328 l 12.06797,59.51125 11.35498,-59.37704 c 1.02157,-0.16321 2.04013,-0.35983 3.05994,-0.56846 3.73486,9.87991 9.50657,16.90035 16.77398,21.81183 10.27354,6.94314 15.7817,16.00568 18.86486,28.18564 3.27331,-12.80142 -0.37734,-23.32215 -6.63344,-33.252 -4.84708,-7.69355 -7.99011,-15.85158 -7.82238,-24.67096 2.18619,-1.23461 4.26869,-2.56954 6.28201,-4.00015 l 50.60144,33.56409 -33.96031,-50.04367 c 0.59672,-0.8254 1.19071,-1.67456 1.75117,-2.52285 9.63002,4.34943 18.70289,5.18007 27.31915,3.51336 12.17397,-2.35505 22.46711,0.21241 33.25976,6.64482 -6.73747,-11.3666 -16.77164,-16.22183 -28.21685,-18.81962 -8.85801,-2.01053 -16.86466,-5.61055 -22.97593,-11.95304 0.66399,-2.38791 1.17341,-4.79808 1.59065,-7.24968 l 59.52892,-12.02532 -59.39477,-11.39763 c -0.16318,-1.02155 -0.35983,-2.04012 -0.56843,-3.05995 9.88602,-3.73348 16.89852,-9.50387 21.81187,-16.77395 6.94311,-10.27354 16.0233,-15.7391 28.20327,-18.82223 -12.80149,-3.27329 -23.33985,0.33471 -33.2697,6.5908 -7.69345,4.84707 -15.85149,7.99012 -24.6709,7.82238 -1.23463,-2.18618 -2.56953,-4.2687 -4.00013,-6.28199 L 253.65213,65.198429 203.59078,99.11611 c -0.82538,-0.59673 -1.67453,-1.190711 -2.52285,-1.75116 4.34364,-9.624464 5.19689,-18.664682 3.53099,-27.276493 -2.35497,-12.174057 0.19477,-22.509733 6.6272,-33.302405 -11.3666,6.737462 -16.22184,16.771636 -18.81963,28.216826 -2.01504,8.877928 -5.60871,16.91976 -11.97801,23.036231 -2.38057,-0.661141 -4.78084,-1.235008 -7.22471,-1.650941 L 161.17846,26.85928 149.78081,86.253997 c -1.02154,0.163192 -2.04012,0.359843 -3.05997,0.568453 -3.73628,-9.879565 -9.50373,-16.898438 -16.77393,-21.811851 -10.27353,-6.943157 -15.73908,-16.023291 -18.82223,-28.203311 z"
         style="color:#000000;display:inline;overflow:visible;visibility:visible;opacity:1;fill:#fcef3c;fill-opacity:1;fill-rule:nonzero;stroke:#000000;stroke-width:4.4336133;stroke-linecap:butt;stroke-linejoin:miter;stroke-miterlimit:4;stroke-dasharray:none;stroke-dashoffset:0;stroke-opacity:1;marker:none;marker-start:none;marker-mid:none;marker-end:none"
         inkscape:connector-curvature="0"
         inkscape:export-xdpi="96"
         inkscape:export-ydpi="96" />
      <path
         inkscape:connector-curvature="0"
         d="m 231.25915,157.82115 c 0,38.72503 -31.39023,70.1197 -70.1178,70.1197 -38.72757,0 -70.117788,-31.39467 -70.117788,-70.1197 0,-38.72504 31.390998,-70.119994 70.117788,-70.119994 38.7268,0 70.1178,31.392054 70.1178,70.119994 z"
         style="fill:#ffffff;stroke-width:0.0373364"
         id="path4"
         inkscape:export-xdpi="96"
         inkscape:export-ydpi="96" />
      <path
         inkscape:connector-curvature="0"
         id="_149931032"
         data-name=" 149931032"
         d="m 161.14135,87.701156 c -38.71376,0 -70.159607,31.439494 -70.110328,70.117714 0.0098,7.73835 1.243695,15.18218 3.559664,22.14499 h 20.978574 v -58.98664 l 45.57209,45.57171 45.56987,-45.57171 v 58.98775 h 20.98304 c 2.31934,-6.96247 3.54699,-14.40622 3.5608,-22.14496 0.0661,-38.71852 -31.39582,-70.109557 -70.11371,-70.109557 z"
         style="fill:#f26822;stroke-width:0.0373364"
         inkscape:export-xdpi="96"
         inkscape:export-ydpi="96" />
      <path
         inkscape:connector-curvature="0"
         id="_149931160"
         data-name=" 149931160"
         d="m 150.661,177.0255 -19.88798,-19.88907 v 37.11758 h -15.20526 l -14.348,0.003 c 12.3072,20.19154 34.54925,33.69839 59.92159,33.69839 25.37235,0 47.61554,-13.50979 59.92493,-33.70135 H 191.5052 v -37.1173 l -19.88912,19.88909 -10.47701,10.47697 -10.47733,-10.47697 v 0 z"
         style="fill:#4d4d4d;stroke-width:0.0373364"
         inkscape:export-xdpi="96"
         inkscape:export-ydpi="96" />
    </g>
  </g>
</svg>
